<?xml version="1.0" standalone="no"?>
<!DOCTYPE svg PUBLIC "-//W3C//DTD SVG 20010904//EN"
 "http://www.w3.org/TR/2001/REC-SVG-20010904/DTD/svg10.dtd">
<svg version="1.0" xmlns="http://www.w3.org/2000/svg"
 width="1024.000000pt" height="1024.000000pt" viewBox="0 0 1024.000000 1024.000000"
 preserveAspectRatio="xMidYMid meet">
<metadata>
Created by potrace 1.14, written by Peter Selinger 2001-2017
</metadata>
<g transform="translate(0.000000,1024.000000) scale(0.100000,-0.100000)"
fill="#000000" stroke="none">
<path d="M3633 8581 c-77 -21 -132 -47 -203 -94 -55 -36 -2453 -2428 -2517
-2510 -49 -63 -104 -175 -122 -249 -44 -183 -9 -384 94 -544 26 -39 432 -453
1219 -1243 650 -651 1215 -1212 1256 -1248 260 -225 624 -231 890 -16 41 34
620 609 1285 1280 1168 1175 1212 1221 1247 1293 56 114 72 186 71 320 0 95
-5 129 -26 195 -56 169 5 104 -1352 1460 -1341 1342 -1293 1297 -1445 1347
-95 31 -298 35 -397 9z m321 -981 c70 -36 141 -111 166 -176 59 -160 -10 -337
-162 -413 -53 -27 -72 -31 -142 -31 -95 0 -157 24 -226 86 -115 104 -134 295
-43 426 31 45 105 102 160 123 61 23 187 15 247 -15z m-1749 -1739 c119 -56
186 -154 193 -281 7 -138 -58 -249 -184 -311 -121 -60 -258 -39 -363 57 -119
106 -136 309 -38 433 70 88 152 129 262 130 57 1 81 -4 130 -28z m1747 0 c61
-31 132 -102 160 -160 33 -67 37 -178 9 -252 -30 -78 -88 -141 -167 -180 -121
-60 -258 -39 -363 57 -64 57 -94 123 -99 219 -3 64 0 91 17 135 30 80 115 164
197 195 61 23 187 16 246 -14z m1740 0 c61 -31 132 -102 160 -160 19 -38 23
-62 23 -141 0 -83 -4 -101 -27 -146 -33 -63 -94 -119 -166 -152 -150 -68 -333
-2 -418 150 -26 48 -29 62 -29 148 0 78 4 103 22 140 37 74 119 149 198 178
52 20 183 10 237 -17z m-1742 -1742 c65 -31 132 -96 162 -159 33 -66 36 -177
8 -252 -55 -148 -212 -238 -364 -208 -152 29 -255 147 -264 301 -9 153 62 265
207 326 75 32 172 29 251 -8z"/>
<path d="M7210 5990 c0 -5 9 -32 19 -59 120 -302 74 -682 -116 -971 -59 -89
-203 -237 -1456 -1496 l-539 -541 5 -369 c4 -409 6 -423 74 -558 50 -100 180
-228 284 -279 143 -70 55 -67 1814 -67 1750 0 1670 -3 1808 64 158 76 277 215
339 396 l23 65 3 1610 c3 1804 7 1697 -69 1851 -49 101 -126 187 -225 253 -88
59 -173 88 -298 101 -122 13 -1666 13 -1666 0z m222 -1872 c74 -34 142 -106
169 -177 17 -45 20 -72 17 -136 -5 -97 -34 -161 -101 -222 -57 -53 -88 -68
-163 -83 -151 -30 -308 59 -364 206 -40 107 -17 245 54 324 45 50 75 72 132
96 79 33 174 30 256 -8z"/>
</g>
</svg>
